# xmcd CD database file
#
# Track frame offsets:
#	150
#	21442
#	38027
#	57272
#	72595
#	94470
#	113775
#	128802
#	153035
#
# Disc length: 2267 seconds
#
# Revision: 0
# Processed by: cddbd v1.5.1PL0 Copyright (c) Steve Scherf et al.
# Submitted via: CDex 1.51
#
DISCID=7808d909
DTITLE=New Trolls - Concerto Grosso N.2
DYEAR=1976
DGENRE=Progressive Rock
TTITLE0=Tempo: Vivace
TTITLE1=Tempo: Andante (Most Dear Lady)
TTITLE2=Tempo: Moderato (Fare You Well Dove)
TTITLE3=Quiet Seas
TTITLE4=Vent Anni
TTITLE5=Bella Come Mai
TTITLE6=Let It Be Me
TTITLE7=Le Roi Soliel
TTITLE8=Vento O Cent Anni
EXTD=YEAR: 1976
EXTT0=
EXTT1=
EXTT2=
EXTT3=
EXTT4=
EXTT5=
EXTT6=
EXTT7=
EXTT8=
PLAYORDER=
